<?xml version="1.0" encoding="UTF-8" standalone="no"?>
<!-- Created with Inkscape (http://www.inkscape.org/) -->

<svg
   width="280.51962mm"
   height="146.7249mm"
   viewBox="0 0 280.51962 146.7249"
   version="1.1"
   id="svg1"
   xml:space="preserve"
   inkscape:version="1.3.2 (091e20e, 2023-11-25, custom)"
   sodipodi:docname="Stereo_Mouse_Head.svg"
   xmlns:inkscape="http://www.inkscape.org/namespaces/inkscape"
   xmlns:sodipodi="http://sodipodi.sourceforge.net/DTD/sodipodi-0.dtd"
   xmlns:xlink="http://www.w3.org/1999/xlink"
   xmlns="http://www.w3.org/2000/svg"
   xmlns:svg="http://www.w3.org/2000/svg"><sodipodi:namedview
     id="namedview1"
     pagecolor="#ffffff"
     bordercolor="#000000"
     borderopacity="0.25"
     inkscape:showpageshadow="2"
     inkscape:pageopacity="0.0"
     inkscape:pagecheckerboard="true"
     inkscape:deskcolor="#d1d1d1"
     inkscape:document-units="mm"
     inkscape:zoom="1"
     inkscape:cx="431.5"
     inkscape:cy="207.5"
     inkscape:window-width="2560"
     inkscape:window-height="1494"
     inkscape:window-x="-11"
     inkscape:window-y="-11"
     inkscape:window-maximized="1"
     inkscape:current-layer="svg1" /><defs
     id="defs1"><linearGradient
       id="linearGradient50"
       inkscape:collect="always"><stop
         style="stop-color:#414141;stop-opacity:1;"
         offset="0.85492802"
         id="stop50" /><stop
         style="stop-color:#414141;stop-opacity:0;"
         offset="1"
         id="stop51" /></linearGradient><linearGradient
       id="linearGradient15"
       inkscape:collect="always"><stop
         style="stop-color:#2c2c2c;stop-opacity:0.99461645;"
         offset="0.10741974"
         id="stop15" /><stop
         style="stop-color:#2c2c2c;stop-opacity:0;"
         offset="1"
         id="stop16" /></linearGradient><linearGradient
       inkscape:collect="always"
       xlink:href="#swatch67"
       id="linearGradient69"
       x1="67.073189"
       y1="120.10561"
       x2="70.059273"
       y2="120.10561"
       gradientUnits="userSpaceOnUse" /><linearGradient
       id="swatch67"
       inkscape:swatch="solid"><stop
         style="stop-color:#929292;stop-opacity:1;"
         offset="0"
         id="stop67" /></linearGradient><linearGradient
       inkscape:collect="always"
       xlink:href="#swatch67"
       id="linearGradient76"
       x1="67.986771"
       y1="123.07538"
       x2="109.84685"
       y2="123.07538"
       gradientUnits="userSpaceOnUse" /><linearGradient
       inkscape:collect="always"
       xlink:href="#swatch67"
       id="linearGradient72"
       x1="160.20543"
       y1="135.72281"
       x2="163.71065"
       y2="135.72281"
       gradientUnits="userSpaceOnUse" /><linearGradient
       inkscape:collect="always"
       xlink:href="#swatch67"
       id="linearGradient73"
       x1="117.1008"
       y1="132.52"
       x2="160.37326"
       y2="132.52"
       gradientUnits="userSpaceOnUse"
       gradientTransform="matrix(1.4376617,0,0,1.4376617,-48.752497,-56.514415)" /><linearGradient
       id="linearGradient80"
       inkscape:collect="always"><stop
         style="stop-color:#2c2c2c;stop-opacity:0;"
         offset="0"
         id="stop81" /><stop
         style="stop-color:#2c2c2c;stop-opacity:1;"
         offset="0.49876487"
         id="stop80" /></linearGradient><radialGradient
       inkscape:collect="always"
       xlink:href="#linearGradient15"
       id="radialGradient16"
       cx="36.981022"
       cy="133.31607"
       fx="36.981022"
       fy="133.31607"
       r="7.7975683"
       gradientTransform="matrix(1.8767508,0,0,1.7446453,29.997182,-84.089272)"
       gradientUnits="userSpaceOnUse" /><linearGradient
       inkscape:collect="always"
       xlink:href="#linearGradient80"
       id="linearGradient16"
       gradientUnits="userSpaceOnUse"
       gradientTransform="matrix(1.4376617,0,0,1.7291017,-48.752499,-96.303267)"
       x1="96.156731"
       y1="155.93776"
       x2="103.82569"
       y2="141.45714" /><clipPath
       clipPathUnits="userSpaceOnUse"
       id="clipPath16"><path
         style="display:inline;fill:url(#linearGradient17);fill-opacity:1;stroke:none;stroke-width:0.109669;stroke-linecap:round;stroke-dasharray:none;stroke-opacity:1;paint-order:stroke fill markers"
         d="m 91.512763,136.525 23.166497,11.16088 c 0,0 -6.36859,11.61075 -17.892399,14.35374 -10.39867,2.47517 -11.988919,-11.47576 -11.170409,-14.59785 0.73705,-2.81136 1.16581,-9.7913 5.896311,-10.91677"
         id="path16"
         sodipodi:nodetypes="ccssc" /></clipPath><linearGradient
       inkscape:collect="always"
       xlink:href="#linearGradient80"
       id="linearGradient17"
       gradientUnits="userSpaceOnUse"
       gradientTransform="matrix(1,0,0,1.2027181,-1.2499999e-7,-27.676085)"
       x1="96.156731"
       y1="155.93776"
       x2="103.82569"
       y2="141.45714" /><radialGradient
       inkscape:collect="always"
       xlink:href="#linearGradient50"
       id="radialGradient51"
       cx="69.531479"
       cy="145.36369"
       fx="69.531479"
       fy="145.36369"
       r="18.76952"
       gradientTransform="matrix(1,0,0,1.6065201,0,-87.415743)"
       gradientUnits="userSpaceOnUse" /></defs><g
     inkscape:label="Stereotaxic"
     inkscape:groupmode="layer"
     id="layer1"
     style="display:inline"
     transform="translate(-3.2101684,-24.714171)"><g
       id="g55"
       style="display:inline"
       inkscape:label="Leftspike"
       transform="matrix(1.5077074,0,0,1.5077074,-96.414371,-77.079581)"
       inkscape:export-filename="Mouse_Stereotactix.png"
       inkscape:export-xdpi="200"
       inkscape:export-ydpi="200"><path
         style="display:inline;fill:#909090;fill-opacity:1;stroke:#828282;stroke-width:0.2;stroke-linecap:round;stroke-opacity:1;paint-order:stroke fill markers"
         d="m 66.939094,123.29203 c -0.878759,-0.15359 -1.690442,-5.05622 1.777436,-6.77652 1.547335,-0.76758 0.01727,7.26976 -1.777436,6.77652 z"
         id="path15-5"
         sodipodi:nodetypes="csc" /><path
         style="display:inline;fill:#747474;fill-opacity:0;stroke:#7e7e7e;stroke-width:0.2;stroke-linecap:round;stroke-opacity:1;paint-order:stroke fill markers"
         d="m 66.939094,123.29203 0.888844,0.20709"
         id="path18"
         sodipodi:nodetypes="cc" /><path
         style="display:inline;fill:none;stroke:#737373;stroke-width:0.2;stroke-linecap:round;stroke-opacity:1;paint-order:stroke fill markers"
         d="m 68.936655,116.46505 0.784123,0.27627"
         id="path17"
         sodipodi:nodetypes="cc" /><path
         style="display:inline;fill:url(#linearGradient69);stroke:#6b6b6b;stroke-width:0.2;stroke-linecap:round;stroke-linejoin:round;stroke-opacity:1;paint-order:stroke fill markers"
         d="m 67.613805,123.3013 c 0.127633,-0.0458 -1.850269,-3.23784 1.663824,-6.40483 1.779259,-1.60352 -0.336843,8.06737 -1.663824,6.40483 z"
         id="path15"
         sodipodi:nodetypes="csc" /></g><g
       id="g53"
       style="display:inline"
       inkscape:label="Left holder"
       transform="matrix(1.5077074,0,0,1.5077074,-105.88858,-78.796695)"><path
         style="fill:#666666;fill-opacity:1;stroke:#4c4c4c;stroke-width:0.2;stroke-linecap:round;stroke-opacity:1;paint-order:stroke fill markers"
         d="m 92.692118,132.18423 v 2.80417 l 10.199322,1.72564 4.26577,-4.40039 -0.25365,-16.82502 -11.51761,-1.29423 -2.589517,2.28648 0.215707,5.7809 0.04314,1.9669 z"
         id="path6" /><path
         style="display:inline;fill:url(#linearGradient76);stroke:#828282;stroke-width:0.2;stroke-linecap:round;stroke-opacity:1;paint-order:stroke fill markers"
         d="m 104.01311,123.81486 5.53157,3.54494 -7.67375,0.64712 -27.23004,-4.41293 c 0,0 -1.610614,-2.96999 0.951836,-4.28171 l 28.420384,4.50258"
         id="path13-3"
         sodipodi:nodetypes="cccccc" /><path
         style="fill:#888888;fill-opacity:1;stroke:#707070;stroke-width:0.2;stroke-linecap:round;stroke-linejoin:round;stroke-opacity:1;paint-order:stroke fill markers"
         d="m 90.078546,124.5914 0.172566,7.03199 10.440138,1.6825 -0.30199,-7.33398 z"
         id="path1" /><path
         style="fill:#a4a4a4;fill-opacity:1;stroke:#747474;stroke-width:0.2;stroke-linecap:round;stroke-linejoin:round;stroke-opacity:1;paint-order:stroke fill markers"
         d="m 90.078546,124.5914 2.070772,-1.50994 9.620462,1.39528 -1.38052,1.49517 z"
         id="path2" /><path
         style="display:inline;fill:#b4b4b4;fill-opacity:1;stroke:#939393;stroke-width:0.2;stroke-linecap:round;stroke-linejoin:round;stroke-opacity:1;paint-order:stroke fill markers"
         d="m 92.796433,116.48088 2.589517,-2.28648 11.51761,1.29423 -3.01987,2.37276 z"
         id="path5" /><path
         style="fill:#6f6f6f;fill-opacity:1;stroke:#3a3a3a;stroke-width:0.2;stroke-linecap:round;stroke-linejoin:round;paint-order:stroke fill markers"
         d="m 101.76978,124.47674 0.20231,7.06037 -1.28084,1.76878 -0.30199,-7.33398 z"
         id="path3" /><path
         style="fill:#888888;fill-opacity:1;stroke:#5b5b5b;stroke-width:0.2;stroke-linecap:round;stroke-opacity:1;paint-order:stroke fill markers"
         d="m 103.88369,117.86139 0.12942,5.95347 -11.00097,-1.55308 -0.215707,-5.7809 z"
         id="path4" /><path
         style="fill:none;stroke:#5d5d5d;stroke-width:0.2;stroke-linecap:round;stroke-opacity:1;paint-order:stroke fill markers"
         d="m 101.97209,131.53711 2.77418,-3.75926"
         id="path24" /></g><g
       id="g52"
       style="display:inline"
       inkscape:label="Left screw"
       transform="matrix(1.5077074,0,0,1.5077074,-105.88858,-78.796695)"><ellipse
         style="display:inline;fill:#9b9b9b;fill-opacity:1;stroke:#8d8d8d;stroke-width:0.2;stroke-linecap:round;stroke-opacity:1;paint-order:stroke fill markers"
         id="path22-0"
         cx="94.442139"
         cy="120.40718"
         rx="2.8293722"
         ry="2.8044236" /><ellipse
         style="display:inline;fill:#acacac;fill-opacity:1;stroke:#7f7f7f;stroke-width:0.2;stroke-linecap:round;stroke-opacity:1;paint-order:stroke fill markers"
         id="path22-6"
         cx="94.078323"
         cy="120.14872"
         rx="2.8293722"
         ry="2.8044236" /></g><g
       id="g56"
       style="display:inline"
       inkscape:label="RightSpike"
       transform="matrix(1.5077074,0,0,1.5077074,-114.06633,-80.592034)"><path
         style="fill:#8f8f8f;fill-opacity:1;stroke:#616161;stroke-width:0.2;stroke-linecap:round;stroke-opacity:1;paint-order:stroke fill markers"
         d="m 161.66019,131.77903 c 2.27405,0.44668 0.19259,8.19237 -1.28984,7.8879 -2.01267,-0.41337 -0.71106,-8.20209 1.28984,-7.8879 z"
         id="path19-3"
         sodipodi:nodetypes="csc"
         inkscape:label="path19-3" /><path
         style="display:inline;fill:none;stroke:#666666;stroke-width:0.2;stroke-linecap:round;stroke-opacity:1;paint-order:stroke fill markers"
         d="m 161.66019,131.77903 h 0.9428"
         id="path20" /><path
         style="fill:url(#linearGradient72);stroke:#838383;stroke-width:0.2;stroke-linecap:round;stroke-opacity:1;paint-order:stroke fill markers"
         d="m 162.60299,131.77903 c 2.27405,0.44668 0.19259,8.19237 -1.28984,7.8879 -2.01267,-0.41337 -0.71106,-8.20209 1.28984,-7.8879 z"
         id="path19"
         sodipodi:nodetypes="csc" /><path
         style="fill:none;stroke:#828282;stroke-width:0.2;stroke-linecap:round;stroke-opacity:1;paint-order:stroke fill markers"
         d="m 160.37035,139.66693 h 0.9428"
         id="path21" /></g><g
       id="g59"
       style="display:inline"
       inkscape:label="Nose clampHolder"
       transform="matrix(1.5077074,0,0,1.5077074,-105.88858,-78.796695)"><path
         style="fill:#757575;fill-opacity:1;stroke:#7c7c7c;stroke-width:0.2;stroke-linecap:round;stroke-linejoin:round;stroke-opacity:1;paint-order:stroke fill markers"
         d="m 133.71037,101.69922 v 2.48047 l -9.38511,14.06323 c -0.025,-1.04554 -0.0767,-3.20901 -0.075,-3.13662 z"
         id="path27"
         sodipodi:nodetypes="ccccc" /><path
         style="fill:#b4b4b4;fill-opacity:1;stroke:#676767;stroke-width:0.2;stroke-linecap:round;stroke-linejoin:round;stroke-opacity:1;paint-order:stroke fill markers"
         d="m 120.15477,114.4538 9.95408,-13.18453 3.60152,0.42995 -9.46011,13.40708 z"
         id="path26"
         sodipodi:nodetypes="ccccc" /><path
         style="fill:#888888;fill-opacity:1;stroke:#616161;stroke-width:0.2;stroke-linecap:round;stroke-opacity:1;paint-order:stroke fill markers"
         d="m 120.15477,114.4538 4.09549,0.6525 0.075,3.13662 -4.07038,-0.86878 z"
         id="path25"
         sodipodi:nodetypes="ccccc" /><path
         style="fill:#8b8b8b;fill-opacity:1;stroke:#535353;stroke-width:0.2;stroke-linecap:round;stroke-linejoin:round;stroke-opacity:1;paint-order:stroke fill markers"
         d="m 133.71037,104.17969 -0.0958,8.30129 -0.61185,1.25678 -3.2194,-0.41492 0.78854,-1.0899 -0.19809,-3.05353 z"
         id="path37"
         sodipodi:nodetypes="ccccccc" /><path
         style="fill:#727272;fill-opacity:1;stroke:#646464;stroke-width:0.2;stroke-linecap:round;stroke-opacity:1;paint-order:stroke fill markers"
         d="m 133.00274,113.73776 -0.0703,-8.39239 -3.27402,4.906 0.12492,3.07147 z"
         id="path38"
         sodipodi:nodetypes="ccccc" /></g><g
       id="g58"
       inkscape:label="Nose screw"
       style="display:inline"
       transform="matrix(1.5077074,0,0,1.5077074,-105.88858,-78.796695)"><ellipse
         style="fill:#898989;fill-opacity:1;stroke:#626262;stroke-width:0.2;stroke-linecap:round;stroke-opacity:1;paint-order:stroke fill markers"
         id="path34-2"
         cx="124.42774"
         cy="110.71645"
         rx="3.0986562"
         ry="0.8769781" /><path
         style="display:inline;fill:#b5b5b5;fill-opacity:1;stroke:#676767;stroke-width:0.1;stroke-linecap:round;stroke-dasharray:none;stroke-opacity:1;paint-order:stroke fill markers"
         d="m 121.27909,109.69739 v 1.04537"
         id="path35" /><path
         style="display:inline;fill:none;stroke:#5a5a5a;stroke-width:0.1;stroke-linecap:round;stroke-dasharray:none;stroke-opacity:1;paint-order:stroke fill markers"
         d="m 127.5764,109.69447 v 1.04537"
         id="path36" /><ellipse
         style="display:inline;fill:#b5b5b5;fill-opacity:1;stroke:#636363;stroke-width:0.2;stroke-linecap:round;stroke-opacity:1;paint-order:stroke fill markers"
         id="path34"
         cx="124.42774"
         cy="109.67108"
         rx="3.0986562"
         ry="0.8769781" /></g><g
       id="g68"
       inkscape:label="Mouse"
       style="display:inline"
       transform="matrix(1.048722,0,0,1.048722,-54.760768,-19.528787)"><path
         style="display:inline;fill:#2c2c2c;fill-opacity:1;stroke:#1f1f1f;stroke-width:0.287532;stroke-linecap:round;stroke-opacity:1;paint-order:stroke fill markers"
         d="m 82.811903,139.76235 c 0,0 16.060496,-10.03686 18.431677,-11.01446 2.13946,-0.88205 4.78565,-11.0009 15.94528,-14.81092 8.36563,-2.85612 8.51103,-3.15483 9.31934,2.28183 0.80831,5.43667 0.95096,18.0973 -4.89741,21.67627 -5.84836,3.57899 -3.13814,16.94737 -6.41893,19.08328 -3.2808,2.1359 -34.566557,1.87582 -32.379957,-17.216 z"
         id="path46"
         sodipodi:nodetypes="csssssc" /><path
         style="display:inline;fill:url(#linearGradient73);stroke:#717171;stroke-width:0.287532;stroke-linecap:round;stroke-opacity:1;paint-order:stroke fill markers"
         d="m 172.51237,139.44188 -40.79594,-6.0144 -10.11104,-4.74344 10.37418,-1.35259 41.41663,6.23279 c 0,0 -1.00787,2.96259 -0.88383,5.87764 z"
         id="path14"
         inkscape:label="EarFix"
         sodipodi:nodetypes="cccccc" /><path
         style="fill:#9f776b;fill-opacity:1;stroke:#b6877a;stroke-width:0.287532;stroke-linecap:round;stroke-opacity:1;paint-order:stroke fill markers"
         d="m 122.02666,112.33379 c -0.16625,0.96828 3.54242,1.81524 4.07736,1.56948 0.53494,-0.24577 -0.0476,-1.85603 -1.08169,-1.99056 -1.03416,-0.13456 -2.87696,-0.10739 -2.99567,0.42108 z"
         id="path47" /><path
         style="fill:#9f776b;fill-opacity:1;stroke:#c28b73;stroke-width:0.287532;stroke-linecap:round;stroke-opacity:1;paint-order:stroke fill markers"
         d="m 119.92545,129.71384 c 0.0336,0.21853 -0.36984,5.02637 -0.99183,6.80831 -0.62199,1.78192 5.22812,-0.53795 5.17768,-3.81602 -0.0505,-3.27808 0.60519,-6.45529 -1.31123,-5.90053 -1.91642,0.55475 -2.74014,2.42073 -2.87462,2.90824 z"
         id="path48" /><path
         style="fill:#b89387;fill-opacity:1;stroke:#ae806b;stroke-width:0.287532;stroke-linecap:round;stroke-opacity:1;paint-order:stroke fill markers"
         d="m 118.90701,136.88759 c 0.0266,-0.36544 4.92326,-5.21101 5.20429,-4.18146 0.28102,1.02956 -2.80858,5.03919 -5.20429,4.18146 z"
         id="path49" /><path
         style="fill:#9f776b;fill-opacity:1;stroke:#98877e;stroke-width:0.287532;stroke-linecap:round;stroke-opacity:1;paint-order:stroke fill markers"
         d="m 97.394989,128.93214 c 0,0 -2.02988,-4.11178 2.03829,-4.59771 4.068181,-0.48593 5.036691,-1.10168 5.723431,-0.35187 0.68673,0.74981 -2.83817,4.32982 -4.26399,4.48421 -1.425811,0.15438 -3.430491,0.8478 -3.497731,0.46537 z"
         id="path50"
         sodipodi:nodetypes="csssc" /><path
         style="fill:#9f8076;fill-opacity:1;stroke:#5f524b;stroke-width:0.287532;stroke-linecap:round;stroke-opacity:1;paint-order:stroke fill markers"
         d="m 111.41758,124.8276 c 2.02347,1.93685 2.68068,1.6214 3.53654,0.38517 0.85585,-1.23625 1.73548,-5.04006 0.73699,-5.13516 -0.9985,-0.095 -4.09275,1.67383 -4.54122,3.30015 -0.30678,1.11255 0.26769,1.44984 0.26769,1.44984 z"
         id="path52"
         sodipodi:nodetypes="cscsc" /><path
         style="fill:#2c2320;fill-opacity:1;stroke:#544747;stroke-width:0.287532;stroke-linecap:round;stroke-opacity:1;paint-order:stroke fill markers"
         d="m 122.24766,121.06198 -0.0302,1.79493 c 0,0 0.47496,1.32829 0.94554,-0.45763 0.46669,-1.77117 -0.80831,-3.21543 -0.91529,-1.3373 z"
         id="path51"
         sodipodi:nodetypes="ccscc" /><ellipse
         style="fill:#ae2121;fill-opacity:1;stroke:#825454;stroke-width:0.104902;stroke-linecap:round;stroke-dasharray:none;stroke-opacity:1;paint-order:stroke fill markers"
         id="path81"
         ry="0.19316375"
         rx="0.2710219"
         cy="123.70131"
         cx="113.54425" /><ellipse
         style="display:inline;fill:url(#radialGradient16);stroke:none;stroke-width:0.281728;stroke-linecap:round;stroke-opacity:1;paint-order:stroke fill markers"
         id="path13"
         cx="99.401329"
         cy="148.5"
         rx="14.634092"
         ry="13.603991"
         clip-path="url(#clipPath16)"
         transform="matrix(1.4376617,0,0,1.4376617,-48.752497,-56.514415)" /><path
         style="display:inline;fill:url(#linearGradient16);fill-opacity:1;stroke:none;stroke-width:0.157667;stroke-linecap:round;stroke-dasharray:none;stroke-opacity:1;paint-order:stroke fill markers"
         d="m 82.811897,139.76235 33.305593,16.04557 c 0,0 -9.15588,16.69233 -25.723221,20.63582 -14.94977,3.55846 -17.236012,-16.49826 -16.059271,-20.98677 1.059628,-4.04178 1.67604,-14.07658 8.476899,-15.69462"
         id="path79-3"
         sodipodi:nodetypes="ccssc" /></g><g
       id="g54"
       style="display:inline"
       inkscape:label="Right holder"
       transform="matrix(1.5077074,0,0,1.5077074,-105.88858,-78.796695)"><path
         style="display:inline;fill:#666666;fill-opacity:1;stroke:#585858;stroke-width:0.2;stroke-linecap:round;stroke-opacity:1;paint-order:stroke fill markers"
         d="m 145.94623,121.2264 0.20595,16.09162 -3.22583,5.43577 -11.70882,-1.55308 -0.10265,-2.71789 0.10265,-9.56949 0.19016,-6.52212 2.20019,-2.63161 z"
         id="path9" /><path
         style="fill:#b4b4b4;fill-opacity:1;stroke:#949494;stroke-width:0.2;stroke-linecap:round;stroke-linejoin:round;stroke-opacity:1;paint-order:stroke fill markers"
         d="m 131.40769,122.39121 2.20019,-2.63161 12.33835,1.4668 -2.76103,3.00228 z"
         id="path7" /><path
         style="fill:#888888;fill-opacity:1;stroke:#7c7c7c;stroke-width:0.2;stroke-linecap:round;stroke-opacity:1;paint-order:stroke fill markers"
         d="m 131.40769,122.39121 -0.19016,6.52212 11.83825,1.28641 0.12942,-5.97106 z"
         id="path8" /><path
         style="display:inline;fill:#929292;fill-opacity:1;stroke:none;stroke-width:0.1;stroke-linecap:round;stroke-dasharray:none;stroke-opacity:1;paint-order:stroke fill markers"
         d="m 146.4665,131.01241 0.0473,4.18773 -17.14957,-2.53089 v -4.18611 z"
         id="path78" /><path
         style="fill:#888888;fill-opacity:1;stroke:#787878;stroke-width:0.2;stroke-linecap:round;stroke-linejoin:round;stroke-opacity:1;paint-order:stroke fill markers"
         d="m 129.46634,130.93314 9.70674,1.33737 0.0863,7.2477 -9.6636,-1.42366 z"
         id="path10" /><path
         style="fill:#a4a4a4;fill-opacity:1;stroke:#737373;stroke-width:0.2;stroke-linecap:round;stroke-linejoin:round;stroke-opacity:1;paint-order:stroke fill markers"
         d="m 139.17308,132.27051 1.16481,-1.45238 -9.41554,-1.50278 -1.55811,1.54768 z"
         id="path11" /><path
         style="fill:#6f6f6f;fill-opacity:1;stroke:#5b5b5b;stroke-width:0.2;stroke-linecap:round;stroke-linejoin:bevel;stroke-opacity:1;paint-order:stroke fill markers"
         d="m 140.33789,130.81813 0.18564,6.69994 -1.26415,2.00014 -0.0863,-7.2477 z"
         id="path12" /><path
         style="fill:none;stroke:#585858;stroke-width:0.182942;stroke-linecap:round;stroke-opacity:1;paint-order:stroke fill markers"
         d="m 140.62939,137.40458 1.72628,-2.68955"
         id="path23" /></g><g
       id="g57"
       style="display:inline"
       inkscape:label="Right screw"
       transform="matrix(1.5077074,0,0,1.5077074,-105.88858,-78.796695)"><ellipse
         style="display:inline;fill:#9b9b9b;fill-opacity:1;stroke:#757575;stroke-width:0.2;stroke-linecap:round;stroke-opacity:1;paint-order:stroke fill markers"
         id="path22-5"
         cx="134.1469"
         cy="127.24015"
         rx="2.8293722"
         ry="2.8044236" /><ellipse
         style="display:inline;fill:#acacac;fill-opacity:1;stroke:#a0a0a0;stroke-width:0.2;stroke-linecap:round;stroke-opacity:1;paint-order:stroke fill markers"
         id="path22"
         cx="133.71037"
         cy="126.76236"
         rx="2.8293722"
         ry="2.8044236"
         inkscape:label="path22" /></g><g
       id="g30"
       style="display:inline;fill:#626262;fill-opacity:0"
       inkscape:label="Nose clamp"
       transform="matrix(1.5077074,0,0,1.5077074,-105.74754,-78.363217)"><path
         style="display:inline;fill:#a9a9a9;fill-opacity:1;stroke:#787878;stroke-width:0.2;stroke-linecap:round;stroke-opacity:1;paint-order:stroke fill markers"
         d="m 115.33533,118.48059 1.2474,-1.33216 c 0,0 5.39088,-3.86467 8.13594,1.69158 l -1.2474,1.33216 c -2.74506,-5.55625 -8.13594,-1.69158 -8.13594,-1.69158 z"
         id="path28"
         sodipodi:nodetypes="ccccc" /></g><g
       id="g44"
       style="display:inline;stroke:#4b4b4b;stroke-opacity:1"
       inkscape:label="Hamilton"
       transform="matrix(1.5077074,0,0,1.5077074,-105.88858,-78.796695)"><g
         id="g41"
         style="fill:#afafaf;fill-opacity:1;stroke:#4b4b4b;stroke-opacity:1"><path
           style="fill:#afafaf;fill-opacity:1;stroke:#4b4b4b;stroke-width:0.2;stroke-linecap:round;stroke-opacity:1;paint-order:stroke fill markers"
           d="m 110.87695,96.126431 c 0,0 1.60404,0.892969 3.6711,0.03307"
           id="path39" /><path
           style="fill:#747474;fill-opacity:1;stroke:#424242;stroke-width:0.2;stroke-linecap:round;stroke-opacity:1;paint-order:stroke fill markers"
           d="m 114.54805,96.159499 -0.26459,5.103661 c 0,0 -1.35598,2.17514 -3.14192,-0.1 l -0.26459,-5.036729"
           id="path41"
           sodipodi:nodetypes="cccc" /></g><path
         style="fill:#383838;fill-opacity:1;stroke:#4b4b4b;stroke-width:0.2;stroke-linecap:round;stroke-opacity:1;paint-order:stroke fill markers"
         d="m 112.58596,102.2009 0.30402,23.15528 0.12387,-23.15528 z"
         id="path42" /><path
         style="fill:#e9e9e9;fill-opacity:1;stroke:#4b4b4b;stroke-width:0.2;stroke-linecap:round;stroke-opacity:1;paint-order:stroke fill markers"
         d="m 110.10169,68.755086 v 27.010926 c 0,0 2.74786,1.73057 5.30863,-0.128624 l 0.16371,-26.982302 -0.16371,26.982302"
         id="path43"
         sodipodi:nodetypes="cc" /><path
         style="fill:none;stroke:#4b4b4b;stroke-width:0.2;stroke-linecap:round;stroke-opacity:1;paint-order:stroke fill markers"
         d="m 110.10169,68.755085 c 0,0 2.89216,0.939072 5.47173,0"
         id="path44" /><path
         style="fill:none;stroke:#4b4b4b;stroke-width:0.2;stroke-linecap:round;stroke-opacity:1;paint-order:stroke fill markers"
         d="m 112.83786,76.365364 c 0,0 1.82152,0.39775 2.69189,-0.412973"
         id="path45" /><path
         style="display:inline;fill:none;stroke:#4b4b4b;stroke-width:0.2;stroke-linecap:round;stroke-opacity:1;paint-order:stroke fill markers"
         d="m 112.83786,79.739143 c 0,0 1.82152,0.39775 2.69189,-0.412973"
         id="path45-5" /><path
         style="fill:none;stroke:#4b4b4b;stroke-width:0.2;stroke-linecap:round;stroke-opacity:1;paint-order:stroke fill markers"
         d="m 112.83786,83.112922 c 0,0 1.82152,0.39775 2.69189,-0.412973"
         id="path45-8" /><path
         style="fill:none;stroke:#4b4b4b;stroke-width:0.2;stroke-linecap:round;stroke-opacity:1;paint-order:stroke fill markers"
         d="m 112.74635,86.486701 c 0,0 1.82152,0.39775 2.69189,-0.412973"
         id="path45-2" /><path
         style="fill:none;stroke:#4b4b4b;stroke-width:0.2;stroke-linecap:round;stroke-opacity:1;paint-order:stroke fill markers"
         d="m 112.74635,89.86048 c 0,0 1.82152,0.39775 2.69189,-0.412973"
         id="path45-82" /><path
         style="fill:none;stroke:#4b4b4b;stroke-width:0.2;stroke-linecap:round;stroke-opacity:1;paint-order:stroke fill markers"
         d="m 112.74635,93.234259 c 0,0 1.82152,0.39775 2.69189,-0.412973"
         id="path45-7" /><path
         style="fill:none;stroke:#4b4b4b;stroke-width:0.2;stroke-linecap:round;stroke-opacity:1;paint-order:stroke fill markers"
         d="m 112.83786,72.991585 c 0,0 1.82152,0.39775 2.69189,-0.412973"
         id="path45-25" /></g></g><g
     inkscape:label="HeadView"
     id="layer1-0"
     transform="matrix(1.7924666,0,0,1.7924666,50.310869,-185.79819)"
     style="display:inline"><ellipse
       style="display:inline;fill:url(#radialGradient51);stroke:none;stroke-width:0.42539;stroke-linecap:square;stroke-linejoin:miter;stroke-dasharray:none;stroke-dashoffset:0;stroke-opacity:1;paint-order:stroke fill markers"
       id="path40"
       cx="69.531479"
       cy="146.11394"
       rx="18.76952"
       ry="30.153608" /><path
       style="display:inline;fill:#404040;fill-opacity:1;stroke:none;stroke-width:0.3;stroke-linecap:round;stroke-dasharray:none;paint-order:stroke fill markers"
       d="M 127.4944,145.52396 H 58.735364 c 0,0 2.74548,27.33279 11.22596,26.90571 8.48049,-0.42707 17.571076,0.91516 21.231716,-0.67112 3.66064,-1.58627 9.1516,-7.01622 13.66639,-12.26314 4.51479,-5.24692 11.28698,-4.33176 13.30033,-4.5758 2.01335,-0.24405 9.82272,-4.94187 9.33464,-9.39565 z"
       id="path2-7" /><path
       style="display:inline;fill:#414141;fill-opacity:1;stroke:none;stroke-width:0.3;stroke-linecap:round;stroke-dasharray:none;paint-order:stroke fill markers"
       d="m 58.735364,146.05313 c 0.2052,0.16638 -0.73884,-22.78049 7.87038,-26.60066 7.30383,-3.24093 22.534607,-0.51889 25.319427,-0.18303 2.84751,0.34343 11.219729,10.20152 13.056289,11.53102 2.24005,1.62159 4.6202,3.92558 13.24163,5.69799 7.20365,1.48095 9.09472,7.9332 9.27131,9.55468 -13.25365,0 -45.839356,0 -68.759036,0"
       id="path3-1"
       sodipodi:nodetypes="csssscc" /><path
       style="fill:#323232;fill-opacity:1;stroke:#313131;stroke-width:0.2;stroke-linecap:round;stroke-opacity:1;paint-order:stroke fill markers"
       d="m 114.73815,155.05383 c -0.53038,0.31704 -11.51059,-0.67936 -14.28871,1.04043 -2.778127,1.7198 -3.108857,5.41554 -3.108857,5.41554 0,0 -1.699834,4.24175 -5.910074,4.63863 l -4.607115,6.40865 c 0,0 4.955954,0.33184 12.085292,-6.69718 7.129334,-7.02902 5.908804,-9.3991 15.829464,-10.80607 z"
       id="path1-8" /><path
       style="fill:#a87861;fill-opacity:1;stroke:#824831;stroke-width:0.3;stroke-linecap:round;stroke-dasharray:none;stroke-opacity:1;paint-order:stroke fill markers"
       d="m 90.1012,165.22238 c -1.419483,-1.50281 -26.482746,-0.66593 -20.108326,19.38074 1.09286,3.4369 12.10456,-5.70142 14.05373,-9.71141 3.863666,-3.35615 8.878157,-7.07108 6.054596,-9.66933 z"
       id="path4-8"
       sodipodi:nodetypes="cscc" /><path
       style="fill:#2f2f2f;fill-opacity:1;stroke:#282828;stroke-width:0.197147;stroke-linecap:round;stroke-opacity:1;paint-order:stroke fill markers"
       d="m 115.54995,135.973 c -0.51643,-0.31637 -11.28661,0.96903 -13.99168,-0.74716 -2.705075,-1.71621 -3.027109,-5.40419 -3.027109,-5.40419 0,0 -3.889663,-5.52615 -7.989196,-5.92222 l -5.585581,-5.53866 c 0,0 8.159774,0.10564 15.101646,7.1199 6.94187,7.01427 6.33084,8.25839 15.49192,10.49233 z"
       id="path1-4"
       sodipodi:nodetypes="cscccsc" /><path
       style="fill:#000000;fill-opacity:1;stroke:#000000;stroke-width:0.388747;stroke-linecap:round;stroke-dasharray:none;stroke-opacity:1;paint-order:stroke fill markers"
       d="m 105.04279,157.53983 c -0.0429,0 -5.233862,-0.61608 -5.276719,0.87855 -0.04285,1.49463 -0.02143,3.2089 1.435699,2.84997 1.45712,-0.35892 4.21066,-1.84284 4.30709,-2.43747 0.0964,-0.59464 0.0429,-1.23748 -0.46607,-1.29105 z"
       id="path11-9" /><path
       style="fill:#a87861;fill-opacity:1;stroke:#94553c;stroke-width:0.3;stroke-linecap:round;stroke-dasharray:none;paint-order:stroke fill markers"
       d="m 90.101981,125.39623 c -4.125057,5.08211 -26.082517,-3.2002 -20.274477,-18.74598 1.476,-3.95066 11.35956,3.55264 12.84883,8.03672 1.10076,3.31431 6.010566,4.88857 7.160286,7.30911 1.25672,2.64584 0.761451,2.50718 0.265361,3.40015 z"
       id="path5-2"
       sodipodi:nodetypes="csssc" /><path
       style="fill:#a87861;fill-opacity:1;stroke:#94553c;stroke-width:0.3;stroke-linecap:round;stroke-dasharray:none;paint-order:stroke fill markers"
       d="m 128.26346,145.53703 c -0.19779,-1.77144 -2.56027,-5.00804 -4.02985,-3.72098 -1.3175,1.15388 0.45665,1.89651 0.80682,2.73617 0.38276,0.91779 -0.0207,2.08566 -0.48249,2.41738 -0.37672,0.27062 -1.46055,3.3969 0.48049,2.62516 1.94105,-0.77174 2.78069,-1.80744 2.95609,-2.46225 0.17539,-0.65481 0.3391,-1.38501 0.26894,-1.59548 z"
       id="path6-0"
       sodipodi:nodetypes="csssssc" /><path
       style="fill:#d2ab99;fill-opacity:1;stroke:#94553c;stroke-width:0.3;stroke-linecap:round;stroke-dasharray:none;paint-order:stroke fill markers"
       d="m 101.91489,145.86183 c -0.28727,0.46954 -19.119196,12.85983 -25.574256,12.90736 -6.1788,0.0455 -13.81244,-7.96114 -13.95279,-12.56552 -0.14034,-4.60431 4.96897,-13.26233 12.114,-14.23699 8.58116,-1.17056 27.449586,13.19426 27.413046,13.89515 z"
       id="path7-1"
       sodipodi:nodetypes="csssc" /><path
       style="fill:none;stroke:#94553c;stroke-width:0.3;stroke-linecap:round;stroke-dasharray:none;paint-order:stroke fill markers"
       d="m 86.064544,155.22087 c 0,0 -3.99568,-7.23989 0.252,-19.83546"
       id="path8-4" /><path
       style="fill:none;stroke:#94553c;stroke-width:0.3;stroke-linecap:round;stroke-dasharray:none;paint-order:stroke fill markers"
       d="m 67.290414,154.40963 c -0.031,-0.0289 2.34349,-8.73264 -0.23862,-18.27453"
       id="path9-3" /><path
       style="fill:#d2ab99;fill-opacity:1;stroke:#94553c;stroke-width:0.3;stroke-linecap:round;stroke-dasharray:none;stroke-opacity:1;paint-order:stroke fill markers"
       d="m 101.92887,145.8134 c -17.386606,0.20497 -26.371716,0.10036 -39.557566,0.15054"
       id="path10-3"
       sodipodi:nodetypes="cc" /><path
       style="fill:#000000;fill-opacity:1;stroke:#000000;stroke-width:0.38996;stroke-linecap:round;stroke-dasharray:none;stroke-opacity:1;paint-order:stroke fill markers"
       d="m 106.76905,133.5855 c -0.0428,0 -5.23387,0.61993 -5.27672,-0.88404 -0.0429,-1.50397 -0.0214,-3.22895 1.43569,-2.86778 1.45713,0.36116 4.21067,1.85436 4.30709,2.4527 0.0964,0.59836 0.0428,1.24522 -0.46606,1.29912 z"
       id="path11-0" /><circle
       style="fill:#d02f1b;fill-opacity:1;stroke:#95484c;stroke-width:0.980281;stroke-linecap:round;stroke-linejoin:miter;stroke-miterlimit:4;stroke-dasharray:none;stroke-opacity:1;paint-order:stroke fill markers"
       id="path16-3"
       cx="-81.637459"
       cy="-148.6096"
       r="0.9320969"
       transform="scale(-1)" /><path
       style="fill:#3e3e3e;fill-opacity:1;stroke:#3a3a3a;stroke-width:0.2;stroke-linecap:round;stroke-opacity:1;paint-order:stroke fill markers"
       d="m 90.1012,165.22238 c 0,0 -2.684336,-3.07325 -14.057606,1.92465 -11.37328,4.99791 -5.56192,19.2149 -6.05072,17.45609 -0.4888,-1.75881 -2.77644,-19.70842 20.108326,-19.38074 z"
       id="path12-4"
       sodipodi:nodetypes="cssc" /><path
       style="fill:#3e3e3e;fill-opacity:1;stroke:#3a3a3a;stroke-width:0.2;stroke-linecap:round;stroke-opacity:1;paint-order:stroke fill markers"
       d="m 90.001981,125.70025 c 0,0 -4.676937,4.64171 -14.626847,-2.35358 -9.94991,-6.99529 -6.07623,-16.90059 -5.14257,-17.34081 0.93367,-0.44023 -5.83005,19.72747 19.769417,19.69439"
       id="path13-6" /></g><g
     id="g31"
     inkscape:label="Lines"
     transform="matrix(1.048722,0,0,1.048722,-10.580908,-34.710001)"><path
       style="fill:#2c2c2c;fill-opacity:1;stroke:#000000;stroke-width:0.7;stroke-linecap:round;stroke-dasharray:8.4, 2.8;stroke-dashoffset:0;stroke-opacity:1;paint-order:stroke fill markers"
       d="M 72.490052,107.30974 171.83876,57.99665"
       id="path29"
       sodipodi:nodetypes="cc" /><path
       style="fill:#2c2c2c;fill-opacity:1;stroke:#000000;stroke-width:0.7;stroke-linecap:round;stroke-dasharray:8.4, 2.8;stroke-dashoffset:0;stroke-opacity:1;paint-order:stroke fill markers"
       d="M 71.534025,119.89164 175.66822,150.8642"
       id="path30"
       sodipodi:nodetypes="cc" /><path
       style="display:inline;fill:none;fill-opacity:1;stroke:#000000;stroke-width:0.7;stroke-linecap:square;stroke-linejoin:miter;stroke-dasharray:none;stroke-dashoffset:0;stroke-opacity:1;paint-order:stroke fill markers"
       d="m 196.17076,105.63306 -2.54719,0.002 1e-5,4.22252 2.66922,0.0305"
       id="path31" /><path
       style="fill:none;fill-opacity:1;stroke:#000000;stroke-width:0.617636;stroke-linecap:square;stroke-linejoin:miter;stroke-dasharray:none;stroke-dashoffset:0;stroke-opacity:1;paint-order:stroke fill markers"
       d="m 197.727,111.39646 v 2.61085 l 4.60151,0.0403 v -2.59739"
       id="path32" /><text
       xml:space="preserve"
       style="font-weight:bold;font-size:4.23333px;line-height:1;font-family:Arial;-inkscape-font-specification:'Arial Bold';text-align:justify;letter-spacing:0px;fill:none;fill-opacity:1;stroke:none;stroke-width:0.7;stroke-linecap:square;stroke-linejoin:miter;stroke-dasharray:none;stroke-dashoffset:0;stroke-opacity:1;paint-order:stroke fill markers"
       x="183.15468"
       y="109.28378"
       id="text33-2"><tspan
         sodipodi:role="line"
         id="tspan33-1"
         style="font-style:normal;font-variant:normal;font-weight:normal;font-stretch:normal;font-size:4.23333px;line-height:1;font-family:Arial;-inkscape-font-specification:Arial;letter-spacing:0px;fill:#000000;fill-opacity:1;stroke:none;stroke-width:0.7;stroke-opacity:1"
         x="183.15468"
         y="109.28378">2mm</tspan></text><text
       xml:space="preserve"
       style="font-weight:bold;font-size:4.23333px;line-height:1;font-family:Arial;-inkscape-font-specification:'Arial Bold';text-align:justify;letter-spacing:0px;fill:none;fill-opacity:1;stroke:none;stroke-width:0.7;stroke-linecap:square;stroke-linejoin:miter;stroke-dasharray:none;stroke-dashoffset:0;stroke-opacity:1;paint-order:stroke fill markers"
       x="195.39668"
       y="118.50365"
       id="text33"><tspan
         sodipodi:role="line"
         id="tspan33"
         style="font-style:normal;font-variant:normal;font-weight:normal;font-stretch:normal;font-size:4.23333px;line-height:1;font-family:Arial;-inkscape-font-specification:Arial;letter-spacing:0px;fill:#000000;fill-opacity:1;stroke:none;stroke-width:0.7;stroke-opacity:1"
         x="195.39668"
         y="118.50365">2mm</tspan></text></g></svg>
